# xmcd
#
# Track frame offsets:
#	182
#	11850
#	21715
#	33072
#	42625
#	51785
#	63897
#	77497
#	87500
#	101115
#
# Disc length: 1522
#
# Revision: 3
# Processed by: cddbd v1.5.1PL0 Copyright (c) Steve Scherf et al.
# Submitted via: CDValet v3.31 - Copyright (c) 1997 Greg Leichner
# Normalized: r1:DSETVAR1,TDELIM( - ),TSWAP
#
DISCID=8005f00a
DTITLE=Various Artist - 25 Years Of R&B (1965)
DYEAR=1900
DGENRE=
TTITLE0=Wilson Pickett - In The Midnight Hour
TTITLE1=Otis Redding - Respect
TTITLE2=Barbara Lewis - Baby, I'm Yours
TTITLE3=Booker T. and The MG's - Boot-Leg
TTITLE4=Solomon Burke - Got To Get You Off My Mind
TTITLE5=Sam and Dave - You Don't Know Like I Know
TTITLE6=The Drifters - At The Club
TTITLE7=Joe Tex - I Want To (Do Everything For You)
TTITLE8=Don Covay and The Goodtimers - See Saw
TTITLE9=Otis Redding - I've Been Loving You Too Long (To Stop Now)
EXTD=
EXTT0=
EXTT1=
EXTT2=
EXTT3=
EXTT4=
EXTT5=
EXTT6=
EXTT7=
EXTT8=
EXTT9=
PLAYORDER=
